<svg width="516" height="516" xmlns="http://www.w3.org/2000/svg" xmlns:xlink="http://www.w3.org/1999/xlink" overflow="hidden"><defs><clipPath id="clip0"><rect x="2041" y="699" width="516" height="516"/></clipPath><clipPath id="clip1"><rect x="2130" y="768" width="338" height="338"/></clipPath><clipPath id="clip2"><rect x="2130" y="768" width="338" height="338"/></clipPath><clipPath id="clip3"><rect x="2130" y="768" width="338" height="338"/></clipPath></defs><g clip-path="url(#clip0)" transform="translate(-2041 -699)"><path d="M2055 957C2055 822.242 2164.24 713 2299 713 2433.76 713 2543 822.242 2543 957 2543 1091.76 2433.76 1201 2299 1201 2164.24 1201 2055 1091.76 2055 957Z" stroke="#FFFFFF" stroke-width="27.5" stroke-miterlimit="8" fill="#FFC62E" fill-rule="evenodd"/><g clip-path="url(#clip1)"><g clip-path="url(#clip2)"><g clip-path="url(#clip3)"><path d="M2271.7 997.55C2266.8 997.55 2262.25 996.5 2257.7 994.75 2250.35 991.95 2244.05 986.7 2239.5 980.05 2239.15 980.05 2238.45 979.7 2238.1 979.7L2196.1 1062.3 2231.45 1054.25 2249.3 1087.5 2293.05 1002.1C2288.15 1001.4 2283.25 999.3 2279.05 996.85 2276.6 997.2 2274.15 997.55 2271.7 997.55Z" stroke="#FFFFFF" stroke-width="4.61856" fill="#FFFFFF"/><path d="M2344.85 993C2339.95 995.1 2334.7 996.15 2329.45 996.15 2326.65 996.15 2324.2 995.8 2321.4 995.45 2316.15 998.95 2310.2 1001.4 2303.9 1002.1L2350.1 1085.4 2368.3 1055.65 2404 1061.6 2359.55 981.8C2355.7 986.7 2350.8 990.55 2344.85 993Z" stroke="#FFFFFF" stroke-width="4.61856" fill="#FFFFFF"/><path d="M2297.95 949.6C2264.7 949.6 2237.4 922.65 2237.4 889.05 2237.4 855.45 2264.7 828.5 2297.95 828.5 2331.2 828.5 2358.5 855.45 2358.5 889.05 2358.5 922.65 2331.2 949.6 2297.95 949.6ZM2401.2 889.05C2401.2 881.35 2398.05 874.35 2392.8 869.45 2395.6 862.8 2395.95 855.1 2392.8 848.1 2390 841.8 2385.1 836.9 2379.15 834.45 2378.8 828.15 2376.35 821.85 2371.45 816.95 2365.85 811.35 2358.85 808.9 2351.5 809.25 2349.05 802.6 2343.8 797 2336.45 794.2 2330.15 791.75 2323.15 791.75 2317.2 794.2 2312.3 790 2306.35 787.2 2299.35 787.2 2291.65 787.2 2284.65 790.35 2279.75 795.6 2273.1 792.8 2265.4 792.45 2258.4 795.6 2252.1 798.4 2247.2 803.3 2244.75 809.25 2238.45 809.6 2232.15 812.05 2227.25 816.95 2221.65 822.55 2219.2 829.55 2219.55 836.9 2212.9 839.35 2207.3 844.6 2204.5 851.95 2202.05 858.25 2202.05 865.25 2204.5 871.2 2200.3 876.1 2197.5 882.05 2197.5 889.05 2197.5 896.75 2200.65 903.75 2205.9 908.65 2203.1 915.3 2202.75 923 2205.9 930 2208.7 936.3 2213.6 941.2 2219.55 943.65 2219.9 949.95 2222.35 956.25 2227.25 961.15 2232.85 966.75 2239.85 969.2 2247.2 968.85 2249.65 975.5 2254.9 981.1 2262.25 983.9 2268.55 986.35 2275.55 986.35 2281.5 983.9 2286.4 988.1 2292.35 990.9 2299.35 990.9 2307.05 990.9 2314.05 987.75 2318.95 982.5 2325.6 985.3 2333.3 985.65 2340.3 982.5 2346.6 979.7 2351.5 974.8 2353.95 968.85 2360.25 968.5 2366.55 966.05 2371.45 961.15 2377.05 955.55 2379.5 948.55 2379.15 941.2 2385.8 938.75 2391.4 933.5 2394.2 926.15 2396.65 919.85 2396.65 912.85 2394.2 906.9 2398.4 902.35 2401.2 896.05 2401.2 889.05Z" stroke="#FFFFFF" stroke-width="4.61856" fill="#FFFFFF"/></g></g></g></g></svg>