<svg width="516" height="516" xmlns="http://www.w3.org/2000/svg" xmlns:xlink="http://www.w3.org/1999/xlink" overflow="hidden"><defs><clipPath id="clip0"><rect x="1046" y="1328" width="516" height="516"/></clipPath><clipPath id="clip1"><rect x="1133" y="1435" width="303" height="303"/></clipPath><clipPath id="clip2"><rect x="1133" y="1435" width="303" height="303"/></clipPath><clipPath id="clip3"><rect x="1133" y="1435" width="303" height="303"/></clipPath></defs><g clip-path="url(#clip0)" transform="translate(-1046 -1328)"><path d="M1060 1586C1060 1451.24 1169.24 1342 1304 1342 1438.76 1342 1548 1451.24 1548 1586 1548 1720.76 1438.76 1830 1304 1830 1169.24 1830 1060 1720.76 1060 1586Z" stroke="#FFFFFF" stroke-width="27.5" stroke-miterlimit="8" fill="#2DC8FF" fill-rule="evenodd"/><g clip-path="url(#clip1)"><g clip-path="url(#clip2)"><g clip-path="url(#clip3)"><path d="M1367.82 1666.35 1311.01 1646.78 1310.7 1646.78 1287.97 1638.89 1394.34 1498.44 1367.82 1666.35ZM1296.81 1655.62 1275.98 1676.45 1281.66 1650.57 1296.81 1655.62 1296.81 1655.62ZM1271.56 1639.53C1270.93 1640.16 1270.61 1641.1 1270.3 1642.05L1269.35 1646.15 1263.04 1674.88 1247.89 1630.69 1365.93 1517.06 1275.35 1634.79 1271.56 1639.53ZM1180.34 1602.28 1365.3 1503.81 1238.73 1622.17 1180.34 1602.28ZM1408.22 1470.98C1406.33 1469.4 1403.49 1469.4 1401.28 1470.67L1161.72 1597.86C1159.51 1599.12 1158.25 1601.33 1158.25 1603.86 1158.25 1606.38 1160.14 1608.59 1162.35 1609.23L1228 1631.63 1236.21 1634.47 1238.1 1639.84 1257.67 1698.55 1257.67 1698.86 1257.67 1699.18C1258.3 1701.07 1260.2 1702.65 1262.41 1703.28 1264.62 1703.91 1266.82 1703.28 1268.4 1701.7L1268.72 1701.39 1270.61 1699.49 1310.38 1660.36 1370.98 1681.19C1372.87 1681.82 1374.77 1681.5 1376.35 1680.56 1377.92 1679.61 1379.19 1678.03 1379.5 1676.14L1411.07 1477.29C1411.38 1474.45 1410.12 1472.24 1408.22 1470.98Z" stroke="#FFFFFF" stroke-width="3.51303" fill="#FFFFFF"/></g></g></g></g></svg>