<svg width="516" height="516" xmlns="http://www.w3.org/2000/svg" xmlns:xlink="http://www.w3.org/1999/xlink" overflow="hidden"><defs><clipPath id="clip0"><rect x="1245" y="671" width="516" height="516"/></clipPath><clipPath id="clip1"><rect x="1283" y="753" width="371" height="368"/></clipPath><clipPath id="clip2"><rect x="1283" y="753" width="371" height="368"/></clipPath><clipPath id="clip3"><rect x="1283" y="753" width="371" height="368"/></clipPath></defs><g clip-path="url(#clip0)" transform="translate(-1245 -671)"><path d="M1259 929C1259 794.243 1368.24 685 1503 685 1637.76 685 1747 794.243 1747 929 1747 1063.76 1637.76 1173 1503 1173 1368.24 1173 1259 1063.76 1259 929Z" stroke="#FFFFFF" stroke-width="27.5" stroke-miterlimit="8" fill="#FFC62E" fill-rule="evenodd"/><g clip-path="url(#clip1)"><g clip-path="url(#clip2)"><g clip-path="url(#clip3)"><path d="M285.2 280.983 216.2 257.217 215.817 257.217 188.217 247.633 317.4 77.05 285.2 280.983ZM198.95 267.95 173.65 293.25 180.55 261.817 198.95 267.95 198.95 267.95ZM168.283 248.4C167.517 249.167 167.133 250.317 166.75 251.467L165.6 256.45 157.933 291.333 139.533 237.667 282.9 99.6666 172.883 242.65 168.283 248.4ZM57.5 203.167 282.133 83.5666 128.417 227.317 57.5 203.167ZM334.266 43.7C331.966 41.7833 328.516 41.7833 325.833 43.3166L34.8833 197.8C32.2 199.333 30.6667 202.017 30.6667 205.083 30.6667 208.15 32.9667 210.833 35.65 211.6L115.383 238.817 125.35 242.267 127.65 248.783 151.417 320.083 151.417 320.466 151.417 320.85C152.183 323.15 154.483 325.066 157.167 325.833 159.85 326.6 162.533 325.833 164.45 323.917L164.833 323.533 167.133 321.233 215.433 273.7 289.033 299C291.333 299.767 293.633 299.383 295.55 298.233 297.466 297.083 299 295.167 299.383 292.867L337.716 51.3666C338.1 47.9166 336.566 45.2333 334.266 43.7Z" stroke="#FFFFFF" stroke-width="4.26665" fill="#FFFFFF" transform="matrix(1.00272 0 0 1 1284 753)"/></g></g></g></g></svg>